<svg width="1008" height="556" viewBox="0 0 1008 556" fill="none" xmlns="http://www.w3.org/2000/svg">
<path d="M46.1245 -0.00022643V42.2576L185.505 151.631H219.439L362.542 42.2576V-0.00022643L219.439 109.373H185.505L46.1245 -0.00022643Z" fill="url(#paint0_radial_582_5450)"/>
<path d="M362.542 -0.00022643V42.2576V405.178H404.732V-0.00022643H362.542Z" fill="url(#paint1_radial_582_5450)"/>
<path d="M0.212891 -0.00022643V405.178H46.1245V42.2576V-0.00022643H0.212891Z" fill="url(#paint2_radial_582_5450)"/>
<path d="M788.56 -0.00022643L603.268 212.532L649.18 223.718L727.354 132.988L746.897 110.305L805.528 42.2576H822.495L854.472 123.355L865.132 150.388L965.598 405.178H1007.79L848.957 -0.00022643H788.56Z" fill="url(#paint3_radial_582_5450)"/>
<path d="M727.354 132.988L865.132 150.388L854.472 123.355L746.897 110.305L727.354 132.988Z" fill="url(#paint4_radial_582_5450)"/>
<path d="M1.94571 554.323V458.436H24.2665C37.0389 458.436 46.98 461.872 54.0895 468.745C63.4312 477.729 68.102 490.295 68.102 506.442C68.102 522.34 64.1546 534.616 56.2596 543.269C49.522 550.638 39.4777 554.323 26.1266 554.323H1.94571ZM27.8006 531.159C37.0596 530.703 41.6891 522.713 41.6891 507.187C41.6891 499.527 40.5111 493.483 38.155 489.053C35.7989 484.581 32.6161 482.345 28.6066 482.345H27.8006V531.159Z" fill="url(#paint5_radial_582_5450)"/>
<path d="M203.641 554.323V458.436H251.693V480.979H229.496V494.952H249.399V516.627H229.496V531.283H251.693V554.323H203.641Z" fill="url(#paint6_radial_582_5450)"/>
<path d="M385.186 551.963V521.843C390.27 528.799 395.768 532.277 401.679 532.277C403.911 532.277 405.729 531.697 407.135 530.538C408.54 529.337 409.243 527.846 409.243 526.066C409.243 523.499 407.714 520.994 404.655 518.552L400.439 515.26C397.628 513.149 395.23 511.058 393.246 508.988C391.262 506.876 389.65 504.723 388.41 502.529C387.17 500.293 386.261 497.996 385.682 495.636C385.103 493.276 384.814 490.792 384.814 488.183C384.814 483.712 385.847 479.033 387.914 474.148C388.948 471.871 390.146 469.801 391.51 467.938C392.874 466.033 394.445 464.356 396.222 462.907C401.1 458.767 406.99 456.697 413.893 456.697C420.052 456.697 426.252 458.332 432.494 461.603V490.916C430.386 487.645 427.988 485.078 425.302 483.215C422.615 481.31 419.969 480.358 417.365 480.358C415.381 480.358 413.748 480.938 412.467 482.097C411.144 483.215 410.483 484.561 410.483 486.134C410.483 488.701 412.24 491.247 415.753 493.773L419.845 496.816C425.302 500.749 429.208 504.785 431.564 508.926C433.961 513.066 435.16 517.91 435.16 523.458C435.16 532.898 432.287 540.681 426.542 546.809C420.796 552.936 413.521 556 404.717 556C398.641 556 392.13 554.654 385.186 551.963Z" fill="url(#paint7_radial_582_5450)"/>
<path d="M595.562 554.323H569.707V458.436H595.562V554.323Z" fill="url(#paint8_radial_582_5450)"/>
<path d="M766.753 498.865H802.838V502.84C802.838 521.305 800.089 534.595 794.591 542.71C788.598 551.57 779.732 556 767.992 556C756.46 556 747.408 551.653 740.836 542.958C734.305 534.181 731.039 522.133 731.039 506.814C731.039 491.288 734.325 479.054 740.898 470.111C747.47 461.168 756.46 456.697 767.869 456.697C782.997 456.697 793.971 464.605 800.792 480.42L775.743 489.612C775.371 486.589 774.503 484.209 773.139 482.47C771.816 480.689 770.142 479.799 768.117 479.799C761.007 479.799 757.452 489.591 757.452 509.174C757.452 517.496 758.237 523.541 759.808 527.308C761.379 531.076 763.88 532.96 767.311 532.96C768.675 532.96 769.915 532.628 771.031 531.966C772.147 531.304 773.077 530.372 773.821 529.171C774.606 527.971 775.205 526.522 775.619 524.824C776.073 523.085 776.301 521.16 776.301 519.049H766.753V498.865Z" fill="url(#paint9_radial_582_5450)"/>
<path d="M938.377 554.323V458.436H963.054L976.012 492.096C976.715 494.083 977.5 496.36 978.368 498.927C979.278 501.494 980.27 504.454 981.344 507.808L984.01 516.254C983.06 507.932 982.336 500.811 981.84 494.89C981.344 488.97 981.096 484.002 981.096 479.986V458.436H1005.77V554.323H981.096L968.076 519.049C966.712 515.281 965.472 511.762 964.356 508.491C963.281 505.179 962.33 502.032 961.504 499.051C962.041 505.8 962.434 511.679 962.682 516.689C962.93 521.698 963.054 526.087 963.054 529.854V554.323H938.377Z" fill="url(#paint10_radial_582_5450)"/>
<path fill-rule="evenodd" clip-rule="evenodd" d="M629.326 -0.000244141H436.994V405.178H841.512V267.061L520.131 219.584V185.594L629.326 138.116V-0.000244141ZM791.878 370.377V285.842L549.363 256.783L486.628 248.575V370.377L791.878 370.377ZM479.183 32.3146L593.341 32.3146V115.683L528.529 144.341L479.183 166.545V32.3146Z" fill="url(#paint11_radial_582_5450)"/>
<defs>
<radialGradient id="paint0_radial_582_5450" cx="0" cy="0" r="1" gradientUnits="userSpaceOnUse" gradientTransform="translate(504 205.075) rotate(90) scale(351.734 637.407)">
<stop stop-color="#FF0000"/>
<stop offset="1"/>
</radialGradient>
<radialGradient id="paint1_radial_582_5450" cx="0" cy="0" r="1" gradientUnits="userSpaceOnUse" gradientTransform="translate(504 205.075) rotate(90) scale(351.734 637.407)">
<stop stop-color="#FF0000"/>
<stop offset="1"/>
</radialGradient>
<radialGradient id="paint2_radial_582_5450" cx="0" cy="0" r="1" gradientUnits="userSpaceOnUse" gradientTransform="translate(504 205.075) rotate(90) scale(351.734 637.407)">
<stop stop-color="#FF0000"/>
<stop offset="1"/>
</radialGradient>
<radialGradient id="paint3_radial_582_5450" cx="0" cy="0" r="1" gradientUnits="userSpaceOnUse" gradientTransform="translate(504 205.075) rotate(90) scale(351.734 637.407)">
<stop stop-color="#FF0000"/>
<stop offset="1"/>
</radialGradient>
<radialGradient id="paint4_radial_582_5450" cx="0" cy="0" r="1" gradientUnits="userSpaceOnUse" gradientTransform="translate(504 205.075) rotate(90) scale(351.734 637.407)">
<stop stop-color="#FF0000"/>
<stop offset="1"/>
</radialGradient>
<radialGradient id="paint5_radial_582_5450" cx="0" cy="0" r="1" gradientUnits="userSpaceOnUse" gradientTransform="translate(504 205.075) rotate(90) scale(351.734 637.407)">
<stop stop-color="#FF0000"/>
<stop offset="1"/>
</radialGradient>
<radialGradient id="paint6_radial_582_5450" cx="0" cy="0" r="1" gradientUnits="userSpaceOnUse" gradientTransform="translate(504 205.075) rotate(90) scale(351.734 637.407)">
<stop stop-color="#FF0000"/>
<stop offset="1"/>
</radialGradient>
<radialGradient id="paint7_radial_582_5450" cx="0" cy="0" r="1" gradientUnits="userSpaceOnUse" gradientTransform="translate(504 205.075) rotate(90) scale(351.734 637.407)">
<stop stop-color="#FF0000"/>
<stop offset="1"/>
</radialGradient>
<radialGradient id="paint8_radial_582_5450" cx="0" cy="0" r="1" gradientUnits="userSpaceOnUse" gradientTransform="translate(504 205.075) rotate(90) scale(351.734 637.407)">
<stop stop-color="#FF0000"/>
<stop offset="1"/>
</radialGradient>
<radialGradient id="paint9_radial_582_5450" cx="0" cy="0" r="1" gradientUnits="userSpaceOnUse" gradientTransform="translate(504 205.075) rotate(90) scale(351.734 637.407)">
<stop stop-color="#FF0000"/>
<stop offset="1"/>
</radialGradient>
<radialGradient id="paint10_radial_582_5450" cx="0" cy="0" r="1" gradientUnits="userSpaceOnUse" gradientTransform="translate(504 205.075) rotate(90) scale(351.734 637.407)">
<stop stop-color="#FF0000"/>
<stop offset="1"/>
</radialGradient>
<radialGradient id="paint11_radial_582_5450" cx="0" cy="0" r="1" gradientUnits="userSpaceOnUse" gradientTransform="translate(504 205.075) rotate(90) scale(351.734 637.407)">
<stop stop-color="#FF0000"/>
<stop offset="1"/>
</radialGradient>
</defs>
</svg>
