<svg width="1930" height="1930" viewBox="0 0 1930 1930" fill="none" xmlns="http://www.w3.org/2000/svg">
<rect width="1930" height="1930" fill="white"/>
<path d="M507.125 687V729.258L646.505 838.631H680.439L823.542 729.258V687L680.439 796.373H646.505L507.125 687Z" fill="url(#paint0_radial_582_5449)"/>
<path d="M823.542 687V729.258V1092.18H865.731V687H823.542Z" fill="url(#paint1_radial_582_5449)"/>
<path d="M461.213 687V1092.18H507.125V729.258V687H461.213Z" fill="url(#paint2_radial_582_5449)"/>
<path d="M1249.56 687L1064.27 899.532L1110.18 910.718L1188.35 819.988L1207.9 797.305L1266.53 729.258H1283.49L1315.47 810.355L1326.13 837.388L1426.6 1092.18H1468.79L1309.96 687H1249.56Z" fill="url(#paint3_radial_582_5449)"/>
<path d="M1188.35 819.988L1326.13 837.388L1315.47 810.355L1207.9 797.305L1188.35 819.988Z" fill="url(#paint4_radial_582_5449)"/>
<path d="M462.946 1241.32V1145.44H485.266C498.039 1145.44 507.98 1148.87 515.09 1155.74C524.431 1164.73 529.102 1177.29 529.102 1193.44C529.102 1209.34 525.155 1221.62 517.26 1230.27C510.522 1237.64 500.478 1241.32 487.127 1241.32H462.946ZM488.801 1218.16C498.06 1217.7 502.689 1209.71 502.689 1194.19C502.689 1186.53 501.511 1180.48 499.155 1176.05C496.799 1171.58 493.616 1169.35 489.607 1169.35H488.801V1218.16Z" fill="url(#paint5_radial_582_5449)"/>
<path d="M664.641 1241.32V1145.44H712.693V1167.98H690.496V1181.95H710.399V1203.63H690.496V1218.28H712.693V1241.32H664.641Z" fill="url(#paint6_radial_582_5449)"/>
<path d="M846.186 1238.96V1208.84C851.27 1215.8 856.768 1219.28 862.679 1219.28C864.911 1219.28 866.729 1218.7 868.135 1217.54C869.54 1216.34 870.243 1214.85 870.243 1213.07C870.243 1210.5 868.714 1207.99 865.655 1205.55L861.439 1202.26C858.628 1200.15 856.23 1198.06 854.246 1195.99C852.262 1193.88 850.65 1191.72 849.41 1189.53C848.17 1187.29 847.261 1185 846.682 1182.64C846.103 1180.28 845.814 1177.79 845.814 1175.18C845.814 1170.71 846.847 1166.03 848.914 1161.15C849.948 1158.87 851.146 1156.8 852.51 1154.94C853.874 1153.03 855.445 1151.36 857.222 1149.91C862.1 1145.77 867.99 1143.7 874.893 1143.7C881.052 1143.7 887.252 1145.33 893.494 1148.6V1177.92C891.386 1174.65 888.988 1172.08 886.302 1170.21C883.615 1168.31 880.969 1167.36 878.365 1167.36C876.381 1167.36 874.748 1167.94 873.467 1169.1C872.144 1170.21 871.483 1171.56 871.483 1173.13C871.483 1175.7 873.24 1178.25 876.753 1180.77L880.845 1183.82C886.302 1187.75 890.208 1191.79 892.564 1195.93C894.961 1200.07 896.16 1204.91 896.16 1210.46C896.16 1219.9 893.287 1227.68 887.542 1233.81C881.796 1239.94 874.521 1243 865.717 1243C859.641 1243 853.13 1241.65 846.186 1238.96Z" fill="url(#paint7_radial_582_5449)"/>
<path d="M1056.56 1241.32H1030.71V1145.44H1056.56V1241.32Z" fill="url(#paint8_radial_582_5449)"/>
<path d="M1227.75 1185.86H1263.84V1189.84C1263.84 1208.3 1261.09 1221.6 1255.59 1229.71C1249.6 1238.57 1240.73 1243 1228.99 1243C1217.46 1243 1208.41 1238.65 1201.84 1229.96C1195.3 1221.18 1192.04 1209.13 1192.04 1193.81C1192.04 1178.29 1195.33 1166.05 1201.9 1157.11C1208.47 1148.17 1217.46 1143.7 1228.87 1143.7C1244 1143.7 1254.97 1151.6 1261.79 1167.42L1236.74 1176.61C1236.37 1173.59 1235.5 1171.21 1234.14 1169.47C1232.82 1167.69 1231.14 1166.8 1229.12 1166.8C1222.01 1166.8 1218.45 1176.59 1218.45 1196.17C1218.45 1204.5 1219.24 1210.54 1220.81 1214.31C1222.38 1218.08 1224.88 1219.96 1228.31 1219.96C1229.67 1219.96 1230.91 1219.63 1232.03 1218.97C1233.15 1218.3 1234.08 1217.37 1234.82 1216.17C1235.61 1214.97 1236.21 1213.52 1236.62 1211.82C1237.07 1210.09 1237.3 1208.16 1237.3 1206.05H1227.75V1185.86Z" fill="url(#paint9_radial_582_5449)"/>
<path d="M1399.38 1241.32V1145.44H1424.05L1437.01 1179.1C1437.71 1181.08 1438.5 1183.36 1439.37 1185.93C1440.28 1188.49 1441.27 1191.45 1442.34 1194.81L1445.01 1203.25C1444.06 1194.93 1443.34 1187.81 1442.84 1181.89C1442.34 1175.97 1442.1 1171 1442.1 1166.99V1145.44H1466.77V1241.32H1442.1L1429.08 1206.05C1427.71 1202.28 1426.47 1198.76 1425.36 1195.49C1424.28 1192.18 1423.33 1189.03 1422.5 1186.05C1423.04 1192.8 1423.43 1198.68 1423.68 1203.69C1423.93 1208.7 1424.05 1213.09 1424.05 1216.85V1241.32H1399.38Z" fill="url(#paint10_radial_582_5449)"/>
<path fill-rule="evenodd" clip-rule="evenodd" d="M1090.33 687H897.994V1092.18H1302.51V954.061L981.131 906.584V872.594L1090.33 825.116L1090.33 687ZM1252.88 1057.38V972.842L1010.36 943.783L947.628 935.575V1057.38L1252.88 1057.38ZM940.183 719.315L1054.34 719.315V802.683L989.529 831.341L940.183 853.545V719.315Z" fill="url(#paint11_radial_582_5449)"/>
<defs>
<radialGradient id="paint0_radial_582_5449" cx="0" cy="0" r="1" gradientUnits="userSpaceOnUse" gradientTransform="translate(965 892.075) rotate(90) scale(351.734 637.407)">
<stop stop-color="#FF0000"/>
<stop offset="1"/>
</radialGradient>
<radialGradient id="paint1_radial_582_5449" cx="0" cy="0" r="1" gradientUnits="userSpaceOnUse" gradientTransform="translate(965 892.075) rotate(90) scale(351.734 637.407)">
<stop stop-color="#FF0000"/>
<stop offset="1"/>
</radialGradient>
<radialGradient id="paint2_radial_582_5449" cx="0" cy="0" r="1" gradientUnits="userSpaceOnUse" gradientTransform="translate(965 892.075) rotate(90) scale(351.734 637.407)">
<stop stop-color="#FF0000"/>
<stop offset="1"/>
</radialGradient>
<radialGradient id="paint3_radial_582_5449" cx="0" cy="0" r="1" gradientUnits="userSpaceOnUse" gradientTransform="translate(965 892.075) rotate(90) scale(351.734 637.407)">
<stop stop-color="#FF0000"/>
<stop offset="1"/>
</radialGradient>
<radialGradient id="paint4_radial_582_5449" cx="0" cy="0" r="1" gradientUnits="userSpaceOnUse" gradientTransform="translate(965 892.075) rotate(90) scale(351.734 637.407)">
<stop stop-color="#FF0000"/>
<stop offset="1"/>
</radialGradient>
<radialGradient id="paint5_radial_582_5449" cx="0" cy="0" r="1" gradientUnits="userSpaceOnUse" gradientTransform="translate(965 892.075) rotate(90) scale(351.734 637.407)">
<stop stop-color="#FF0000"/>
<stop offset="1"/>
</radialGradient>
<radialGradient id="paint6_radial_582_5449" cx="0" cy="0" r="1" gradientUnits="userSpaceOnUse" gradientTransform="translate(965 892.075) rotate(90) scale(351.734 637.407)">
<stop stop-color="#FF0000"/>
<stop offset="1"/>
</radialGradient>
<radialGradient id="paint7_radial_582_5449" cx="0" cy="0" r="1" gradientUnits="userSpaceOnUse" gradientTransform="translate(965 892.075) rotate(90) scale(351.734 637.407)">
<stop stop-color="#FF0000"/>
<stop offset="1"/>
</radialGradient>
<radialGradient id="paint8_radial_582_5449" cx="0" cy="0" r="1" gradientUnits="userSpaceOnUse" gradientTransform="translate(965 892.075) rotate(90) scale(351.734 637.407)">
<stop stop-color="#FF0000"/>
<stop offset="1"/>
</radialGradient>
<radialGradient id="paint9_radial_582_5449" cx="0" cy="0" r="1" gradientUnits="userSpaceOnUse" gradientTransform="translate(965 892.075) rotate(90) scale(351.734 637.407)">
<stop stop-color="#FF0000"/>
<stop offset="1"/>
</radialGradient>
<radialGradient id="paint10_radial_582_5449" cx="0" cy="0" r="1" gradientUnits="userSpaceOnUse" gradientTransform="translate(965 892.075) rotate(90) scale(351.734 637.407)">
<stop stop-color="#FF0000"/>
<stop offset="1"/>
</radialGradient>
<radialGradient id="paint11_radial_582_5449" cx="0" cy="0" r="1" gradientUnits="userSpaceOnUse" gradientTransform="translate(965 892.075) rotate(90) scale(351.734 637.407)">
<stop stop-color="#FF0000"/>
<stop offset="1"/>
</radialGradient>
</defs>
</svg>
